<svg width="160" height="170" viewBox="0 0 160 170" fill="none" xmlns="http://www.w3.org/2000/svg">
<path d="M27.2498 68.86C26.1298 68.35 24.8098 68.2001 23.2998 68.4101C21.7898 68.6201 20.4699 69.1401 19.3499 69.9701C18.2299 70.7901 17.3598 71.86 16.7498 73.18C16.1398 74.5 15.8298 75.9901 15.8198 77.6501C15.8198 79.3201 16.1198 80.73 16.7198 81.89C17.3198 83.05 18.1898 83.89 19.3098 84.39C20.4298 84.9 21.7598 85.0501 23.2698 84.8401C24.7898 84.6301 26.0999 84.1101 27.2299 83.2801C28.3499 82.4601 29.2098 81.38 29.8098 80.05C30.4098 78.72 30.7098 77.22 30.7098 75.56C30.7098 73.9 30.4198 72.4901 29.8198 71.3401C29.2298 70.2001 28.3698 69.37 27.2498 68.86ZM25.8998 79.9701C25.2698 80.9201 24.3898 81.47 23.2798 81.62C22.1698 81.78 21.2998 81.47 20.6798 80.71C20.0598 79.95 19.7498 78.7401 19.7498 77.0901C19.7498 75.4501 20.0698 74.17 20.6998 73.25C21.3298 72.32 22.1998 71.78 23.3098 71.62C24.4198 71.46 25.2998 71.77 25.9298 72.52C26.5598 73.28 26.8698 74.4701 26.8698 76.0901C26.8498 77.7401 26.5298 79.0301 25.8998 79.9701Z" fill="#DEDEDE"/>
<path d="M44.4099 75.57C44.0799 75.29 43.6999 75.13 43.2899 75.1C44.2599 74.63 45.0198 73.97 45.5598 73.1C46.0998 72.24 46.3598 71.27 46.3698 70.19C46.3698 68.64 45.9198 67.52 45.0198 66.81C44.1198 66.11 42.7699 65.88 40.9799 66.13L34.0798 67.1L34.0498 83.13L37.9099 82.59L37.9199 76.35L39.3398 76.15C40.1598 76.03 40.6798 76.26 40.8998 76.83L42.8098 81.89L46.9598 81.31L45.2198 76.78C45.0098 76.26 44.7399 75.86 44.4099 75.57ZM42.1398 72.19C41.7598 72.52 41.1598 72.75 40.3298 72.86L37.8698 73.21L37.8798 69.77L40.3398 69.42C41.1898 69.3 41.7999 69.35 42.1599 69.57C42.5299 69.79 42.7098 70.21 42.7098 70.82C42.7098 71.4 42.5198 71.86 42.1398 72.19Z" fill="#DEDEDE"/>
<path d="M56.9397 73.72L59.5197 73.36L59.5097 76.33C58.8597 76.57 58.1997 76.74 57.5497 76.83C56.1497 77.03 55.1097 76.76 54.4397 76.03C53.7697 75.3 53.4297 74.08 53.4297 72.37C53.4297 70.72 53.7597 69.45 54.4097 68.55C55.0597 67.66 56.0397 67.12 57.3597 66.93C58.0797 66.83 58.7597 66.84 59.3897 66.97C60.0197 67.1 60.6797 67.36 61.3597 67.74L62.5997 64.57C61.9997 64.13 61.2297 63.83 60.2797 63.66C59.3297 63.49 58.3197 63.48 57.2497 63.64C55.6897 63.86 54.3297 64.38 53.1597 65.22C51.9897 66.05 51.0897 67.13 50.4397 68.46C49.7997 69.79 49.4797 71.28 49.4697 72.93C49.4697 74.63 49.7797 76.05 50.4197 77.2C51.0597 78.35 51.9697 79.17 53.1597 79.66C54.3497 80.15 55.7497 80.29 57.3597 80.06C58.3897 79.92 59.3897 79.67 60.3697 79.32C61.3497 78.97 62.2397 78.55 63.0297 78.05L63.0397 70.01L56.9297 70.87L56.9397 73.72Z" fill="#DEDEDE"/>
<path d="M71.7298 61.81L64.7598 78.81L68.6797 78.26L69.9998 74.77L76.5898 73.84L77.8998 76.96L81.7598 76.42L74.8198 61.37L71.7298 61.81ZM71.2698 71.42L73.2997 66.07L75.3098 70.85L71.2698 71.42Z" fill="#DEDEDE"/>
<path d="M87.3099 66.55L94.0299 74.7L96.9299 74.29L96.9599 58.26L93.2699 58.78L93.2499 67.83L86.5299 59.73L83.6799 60.13L83.6499 76.16L87.2999 75.64L87.3099 66.55Z" fill="#DEDEDE"/>
<path d="M104.61 57.19L100.69 57.74L100.66 73.77L104.58 73.22L104.61 57.19Z" fill="#DEDEDE"/>
<path d="M120.54 69.42L119.36 66.5901C118.15 67.7001 116.9 68.3501 115.6 68.5401C114.4 68.7101 113.49 68.42 112.85 67.69C112.21 66.95 111.89 65.7801 111.9 64.1601C111.9 62.5501 112.22 61.3 112.87 60.39C113.51 59.48 114.43 58.9401 115.62 58.7801C116.91 58.6001 118.16 58.9 119.37 59.67L120.57 56.51C120.02 56.05 119.28 55.7201 118.37 55.5301C117.46 55.3501 116.52 55.32 115.54 55.46C114 55.68 112.65 56.21 111.5 57.05C110.35 57.89 109.47 58.98 108.85 60.3C108.23 61.63 107.92 63.1001 107.91 64.7201C107.91 66.3601 108.22 67.7501 108.83 68.9101C109.45 70.0701 110.33 70.91 111.47 71.43C112.61 71.95 113.96 72.1 115.5 71.89C116.47 71.75 117.42 71.46 118.33 71.02C119.25 70.57 119.98 70.04 120.54 69.42Z" fill="#DEDEDE"/>
<path d="M45.0698 89.11C44.1398 88.36 42.8298 88.11 41.1298 88.35L34.0598 89.34L34.0298 105.37L37.9498 104.82L37.9598 98.56L41.1098 98.12C42.7798 97.89 44.0898 97.26 45.0298 96.24C45.9798 95.22 46.4498 93.97 46.4498 92.48C46.4698 90.98 45.9998 89.86 45.0698 89.11ZM40.5998 95.0401L37.9698 95.41L37.9798 91.99L40.6098 91.62C41.3698 91.51 41.9298 91.58 42.2898 91.83C42.6398 92.07 42.8198 92.48 42.8198 93.05C42.8098 94.16 42.0798 94.8301 40.5998 95.0401Z" fill="#DEDEDE"/>
<path d="M59.7399 95.66C59.4099 95.38 59.0299 95.22 58.6199 95.19C59.5899 94.72 60.3499 94.06 60.8899 93.19C61.4299 92.33 61.6999 91.36 61.6999 90.27C61.6999 88.73 61.2499 87.6 60.3499 86.89C59.4499 86.18 58.0999 85.96 56.3099 86.21L49.4099 87.18L49.3799 103.21L53.2399 102.67L53.2499 96.43L54.6699 96.23C55.4899 96.11 56.0099 96.34 56.2299 96.91L58.1399 101.98L62.2899 101.4L60.5499 96.87C60.3399 96.34 60.0699 95.94 59.7399 95.66ZM57.4699 92.27C57.0899 92.6 56.4899 92.82 55.6499 92.94L53.1899 93.29L53.1999 89.85L55.6599 89.5C56.5099 89.38 57.1199 89.43 57.4799 89.65C57.8499 89.87 58.0299 90.29 58.0299 90.9C58.0399 91.49 57.8499 91.94 57.4699 92.27Z" fill="#DEDEDE"/>
<path d="M76.2398 84.21C75.1198 83.7 73.8099 83.55 72.2899 83.76C70.7699 83.97 69.4598 84.49 68.3298 85.32C67.2098 86.14 66.3399 87.21 65.7299 88.53C65.1099 89.85 64.8098 91.34 64.7998 93C64.7998 94.67 65.0998 96.08 65.6998 97.24C66.2998 98.4 67.1699 99.24 68.2899 99.74C69.4099 100.25 70.7398 100.4 72.2498 100.19C73.7698 99.98 75.0798 99.46 76.1998 98.63C77.3198 97.81 78.1798 96.73 78.7798 95.4C79.3798 94.07 79.6798 92.57 79.6898 90.91C79.6898 89.25 79.3998 87.84 78.7998 86.69C78.2198 85.55 77.3598 84.72 76.2398 84.21ZM74.8898 95.33C74.2498 96.28 73.3798 96.83 72.2698 96.98C71.1598 97.14 70.2899 96.83 69.6699 96.07C69.0399 95.31 68.7398 94.1 68.7398 92.45C68.7398 90.81 69.0598 89.53 69.6898 88.61C70.3198 87.68 71.1898 87.14 72.2998 86.98C73.4098 86.82 74.2799 87.13 74.9199 87.88C75.5499 88.64 75.8599 89.83 75.8599 91.45C75.8399 93.09 75.5198 94.38 74.8898 95.33Z" fill="#DEDEDE"/>
<path d="M93.36 81.96C92.17 81.49 90.76 81.3701 89.12 81.6001L83.05 82.45L83.02 98.48L89.09 97.63C90.74 97.4 92.16 96.88 93.36 96.07C94.55 95.26 95.46 94.21 96.09 92.92C96.72 91.62 97.03 90.14 97.04 88.48C97.04 86.83 96.73 85.45 96.1 84.34C95.46 83.22 94.55 82.43 93.36 81.96ZM92.07 92.68C91.35 93.55 90.27 94.0901 88.82 94.2901L86.94 94.55L86.96 85.28L88.84 85.02C91.72 84.62 93.15 85.95 93.15 89.03C93.15 90.59 92.79 91.8 92.07 92.68Z" fill="#DEDEDE"/>
<path d="M109.62 88.15C109.62 89.29 109.38 90.21 108.9 90.89C108.43 91.58 107.75 91.99 106.88 92.11C105.99 92.24 105.31 92.02 104.83 91.48C104.35 90.93 104.12 90.08 104.12 88.92L104.14 79.49L100.32 80.03L100.3 89.3C100.3 91.58 100.85 93.23 101.96 94.26C103.07 95.28 104.71 95.64 106.88 95.33C109.01 95.03 110.64 94.2 111.77 92.85C112.91 91.5 113.48 89.7 113.48 87.44L113.5 78.17L109.64 78.71L109.62 88.15Z" fill="#DEDEDE"/>
<path d="M124.4 79.77C125.69 79.59 126.94 79.88 128.15 80.66L129.35 77.5C128.8 77.04 128.06 76.71 127.15 76.52C126.24 76.33 125.3 76.31 124.32 76.45C122.78 76.67 121.43 77.2 120.28 78.04C119.13 78.89 118.25 79.97 117.63 81.29C117.01 82.62 116.7 84.09 116.69 85.71C116.69 87.35 117 88.74 117.61 89.9C118.23 91.06 119.11 91.9 120.25 92.42C121.4 92.94 122.74 93.1 124.28 92.88C125.25 92.74 126.2 92.45 127.11 92.01C128.02 91.57 128.76 91.04 129.31 90.42L128.13 87.59C126.92 88.7 125.67 89.35 124.37 89.54C123.17 89.71 122.26 89.42 121.62 88.69C120.98 87.95 120.66 86.78 120.67 85.16C120.67 83.55 120.99 82.3 121.64 81.39C122.29 80.48 123.2 79.94 124.4 79.77Z" fill="#DEDEDE"/>
<path d="M131.14 75.7V79.12L135.56 78.5L135.53 91.1L139.49 90.55L139.52 77.94L143.94 77.32L143.95 73.9L131.14 75.7Z" fill="#DEDEDE"/>
<path d="M81.1001 150.5C83.3501 145.61 87.6701 141.85 92.5501 139.57C97.4301 137.29 102.85 136.39 108.23 136.14C107.88 142.68 107.47 149.47 104.3 155.2C101.54 160.18 91.8601 168.61 85.6101 168.16C85.4201 168.15 85.2301 168.12 85.0501 168.09C87.5001 162.27 91.1801 156.98 95.8101 152.67C96.4601 152.07 96.5001 151.05 95.8901 150.4C95.2901 149.75 94.2701 149.71 93.6201 150.32C88.7101 154.89 84.7901 160.49 82.1701 166.66C78.5101 163.12 79.3501 154.3 81.1001 150.5Z" fill="#DEDEDE"/>
<path d="M70.2499 144.51C74.1499 148.86 79.2199 160.8 76.8899 166.34C76.6199 166.98 76.2599 167.51 75.8399 167.94C70.1099 162.73 65.7099 155.97 63.3199 148.62C63.0399 147.78 62.1399 147.31 61.2899 147.59C60.4499 147.86 59.9799 148.77 60.2599 149.62C62.6899 157.07 67.0399 163.96 72.7099 169.41C68.0999 170.05 61.4199 166.62 58.6899 163.97C54.7199 160.12 52.4599 154.79 51.7799 149.5C51.0999 144.21 51.8898 138.92 53.2998 133.92C59.4198 136.63 65.7699 139.51 70.2499 144.51Z" fill="#DEDEDE"/>
<path d="M124.29 146.14C123.36 146.14 122.45 145.7 121.87 144.89C120.92 143.55 121.24 141.7 122.58 140.76C132.04 134.06 139.9 125.12 145.3 114.89C150.88 104.33 153.83 92.4 153.83 80.37C153.83 60.62 146.14 42.05 132.17 28.08C118.2 14.11 99.63 6.41998 79.88 6.41998C60.13 6.41998 41.56 14.11 27.59 28.08C13.62 42.05 5.92999 60.62 5.92999 80.37C5.92999 92.4 8.88002 104.33 14.46 114.89C19.87 125.11 27.72 134.06 37.18 140.76C38.52 141.71 38.83 143.56 37.89 144.89C36.94 146.23 35.09 146.54 33.76 145.6C23.55 138.37 15.06 128.71 9.22003 117.67C3.19003 106.26 0 93.37 0 80.38C0 59.04 8.31002 38.98 23.4 23.9C38.49 8.81002 58.55 0.5 79.88 0.5C101.22 0.5 121.28 8.81002 136.36 23.9C151.45 38.99 159.76 59.05 159.76 80.38C159.76 93.37 156.57 106.26 150.54 117.67C144.7 128.71 136.22 138.37 126 145.6C125.49 145.96 124.89 146.14 124.29 146.14Z" fill="#DEDEDE"/>
<path d="M119.62 39.2901C120.35 39.1901 120.94 39.74 120.94 40.53C120.94 41.32 120.35 42.04 119.62 42.14L35.36 53.98C34.63 54.08 34.04 53.53 34.04 52.74C34.04 51.95 34.63 51.23 35.36 51.13L119.62 39.2901Z" fill="#DEDEDE"/>
<path d="M119.62 104.61C120.35 104.51 120.94 105.06 120.94 105.85C120.94 106.64 120.35 107.36 119.62 107.46L35.36 119.3C34.63 119.4 34.04 118.85 34.04 118.06C34.04 117.27 34.63 116.55 35.36 116.45L119.62 104.61Z" fill="#DEDEDE"/>
</svg>
