<svg width="213" height="168" viewBox="0 0 213 168" fill="none" xmlns="http://www.w3.org/2000/svg">
<path d="M104.24 154.09C104.228 154.09 104.216 154.09 104.205 154.09C102.663 154.042 101.097 153.935 99.5671 153.781C99.0374 153.734 98.6608 153.259 98.7078 152.725C98.7549 152.191 99.2257 151.811 99.7554 151.859C101.25 152.013 102.757 152.108 104.264 152.155C104.793 152.167 105.205 152.618 105.182 153.152C105.17 153.686 104.746 154.09 104.24 154.09ZM108.819 154.09C108.313 154.09 107.889 153.674 107.865 153.164C107.854 152.63 108.266 152.191 108.783 152.167C110.29 152.12 111.797 152.013 113.292 151.87C113.821 151.811 114.28 152.203 114.339 152.737C114.386 153.259 114.01 153.734 113.48 153.793C111.95 153.947 110.384 154.054 108.842 154.102C108.842 154.09 108.831 154.09 108.819 154.09ZM95.1178 153.188C95.0707 153.188 95.0119 153.188 94.9648 153.176C93.4464 152.915 91.9162 152.606 90.4096 152.25C89.8917 152.131 89.5857 151.609 89.7034 151.099C89.8211 150.577 90.339 150.256 90.8451 150.387C92.3047 150.731 93.7995 151.04 95.2708 151.289C95.7887 151.372 96.1419 151.87 96.0595 152.393C95.9771 152.855 95.5768 153.188 95.1178 153.188ZM117.929 153.176C117.47 153.176 117.07 152.844 116.988 152.369C116.905 151.847 117.246 151.348 117.764 151.265C119.247 151.016 120.731 150.707 122.19 150.363C122.708 150.245 123.214 150.565 123.344 151.075C123.461 151.586 123.143 152.108 122.637 152.238C121.131 152.594 119.601 152.915 118.082 153.164C118.035 153.164 117.988 153.176 117.929 153.176ZM86.2075 151.063C86.1133 151.063 86.0192 151.052 85.925 151.016C84.4537 150.553 82.9706 150.043 81.5228 149.485C81.0285 149.295 80.7813 148.737 80.9814 148.239C81.1697 147.74 81.7229 147.491 82.2173 147.681C83.618 148.227 85.0658 148.726 86.49 149.176C86.9961 149.331 87.2786 149.877 87.1138 150.375C86.9844 150.79 86.6077 151.063 86.2075 151.063ZM126.851 151.04C126.439 151.04 126.063 150.779 125.945 150.363C125.792 149.853 126.074 149.319 126.569 149.165C128.005 148.714 129.441 148.215 130.841 147.669C131.336 147.479 131.889 147.729 132.077 148.215C132.266 148.714 132.018 149.271 131.536 149.461C130.1 150.019 128.617 150.541 127.146 151.004C127.04 151.016 126.945 151.04 126.851 151.04ZM77.6385 147.741C77.5091 147.741 77.3678 147.717 77.2383 147.646C75.8376 146.993 74.4487 146.281 73.0833 145.533C72.6243 145.272 72.4477 144.691 72.7067 144.228C72.9656 143.765 73.5424 143.587 74.0014 143.848C75.3197 144.572 76.6851 145.272 78.0387 145.901C78.5213 146.127 78.7214 146.696 78.4978 147.183C78.3448 147.527 78.0034 147.741 77.6385 147.741ZM135.397 147.717C135.032 147.717 134.69 147.515 134.537 147.159C134.314 146.672 134.526 146.103 134.996 145.877C136.35 145.236 137.704 144.548 139.022 143.824C139.481 143.563 140.058 143.741 140.317 144.204C140.576 144.667 140.399 145.248 139.94 145.509C138.586 146.257 137.198 146.969 135.797 147.622C135.667 147.681 135.526 147.717 135.397 147.717ZM143.412 143.266C143.095 143.266 142.789 143.112 142.612 142.827C142.33 142.376 142.459 141.783 142.906 141.498C144.166 140.679 145.425 139.813 146.626 138.911C147.049 138.591 147.65 138.686 147.956 139.113C148.274 139.54 148.179 140.145 147.756 140.454C146.52 141.379 145.225 142.27 143.93 143.112C143.766 143.219 143.589 143.266 143.412 143.266ZM150.781 137.784C150.51 137.784 150.239 137.665 150.051 137.439C149.71 137.036 149.757 136.431 150.169 136.087C151.31 135.113 152.44 134.081 153.523 133.025C153.9 132.657 154.5 132.669 154.877 133.049C155.242 133.428 155.23 134.033 154.853 134.413C153.747 135.493 152.582 136.549 151.405 137.558C151.216 137.712 151.004 137.784 150.781 137.784ZM38.0306 80.4278C38.0071 80.4278 37.9835 80.4278 37.9718 80.4278C37.4421 80.3923 37.0536 79.9413 37.0772 79.4072C37.1831 77.8526 37.3362 76.2861 37.5363 74.7433C37.6069 74.2211 38.0895 73.8532 38.6074 73.9126C39.1253 73.9838 39.5019 74.4703 39.4313 74.9925C39.2312 76.4878 39.0899 78.0069 38.984 79.5259C38.9487 80.0362 38.525 80.4278 38.0306 80.4278ZM174.934 80.1786C174.44 80.1786 174.016 79.787 173.981 79.2886C173.875 77.7814 173.722 76.2505 173.521 74.7552C173.451 74.233 173.816 73.7464 174.334 73.6752C174.863 73.604 175.334 73.9719 175.405 74.4941C175.617 76.0369 175.77 77.6034 175.876 79.158C175.911 79.6921 175.511 80.143 174.993 80.1786C174.969 80.1786 174.957 80.1786 174.934 80.1786ZM39.2194 71.2661C39.1606 71.2661 39.09 71.2542 39.0311 71.2424C38.5132 71.1356 38.1836 70.6371 38.2896 70.115C38.5956 68.584 38.9487 67.0531 39.3607 65.5578C39.5019 65.0475 40.0199 64.739 40.526 64.8814C41.0321 65.0238 41.3381 65.546 41.1969 66.0563C40.8085 67.516 40.4553 68.9994 40.1611 70.4947C40.0669 70.9457 39.6667 71.2661 39.2194 71.2661ZM173.698 71.0288C173.251 71.0288 172.862 70.7202 172.768 70.2574C172.462 68.7739 172.109 67.2786 171.709 65.8308C171.568 65.3205 171.862 64.7864 172.38 64.644C172.886 64.5016 173.416 64.7983 173.557 65.3205C173.969 66.8158 174.334 68.3467 174.64 69.8776C174.746 70.3998 174.416 70.9101 173.898 71.0169C173.828 71.0169 173.769 71.0288 173.698 71.0288ZM41.6324 62.3536C41.5265 62.3536 41.4205 62.3417 41.3264 62.3061C40.832 62.1281 40.5613 61.5822 40.7378 61.0838C41.244 59.6122 41.8089 58.1406 42.4092 56.7046C42.6093 56.2181 43.1743 55.9926 43.6569 56.1943C44.1395 56.3961 44.3632 56.9657 44.1631 57.4523C43.5746 58.8527 43.0331 60.2768 42.5387 61.7127C42.3975 62.1044 42.0208 62.3536 41.6324 62.3536ZM171.262 62.1162C170.873 62.1162 170.496 61.867 170.367 61.4754C169.873 60.0513 169.319 58.6272 168.731 57.2387C168.519 56.7521 168.754 56.1825 169.237 55.9807C169.72 55.7671 170.285 56.0045 170.485 56.491C171.085 57.9151 171.65 59.3867 172.168 60.8583C172.344 61.3567 172.085 61.9026 171.579 62.0806C171.473 62.1044 171.367 62.1162 171.262 62.1162ZM45.1989 53.8327C45.0577 53.8327 44.9046 53.7971 44.7751 53.7259C44.3043 53.4885 44.116 52.907 44.3514 52.4323C45.0459 51.0438 45.7992 49.6553 46.5878 48.3143C46.8585 47.8515 47.447 47.709 47.8943 47.982C48.3534 48.2549 48.4946 48.8365 48.2239 49.2993C47.4588 50.6047 46.729 51.9458 46.0463 53.2987C45.8816 53.6428 45.552 53.8327 45.1989 53.8327ZM167.672 53.6428C167.318 53.6428 166.989 53.4529 166.824 53.1206C166.141 51.7796 165.412 50.4386 164.646 49.1331C164.376 48.6822 164.529 48.0888 164.976 47.8158C165.423 47.5429 166.012 47.6972 166.283 48.1481C167.071 49.4892 167.825 50.8658 168.531 52.2425C168.766 52.7172 168.578 53.2987 168.119 53.536C167.966 53.6072 167.813 53.6428 167.672 53.6428ZM49.8718 45.8815C49.6834 45.8815 49.4951 45.8221 49.3303 45.7153C48.8948 45.4186 48.7889 44.8134 49.0832 44.3743C49.9542 43.0926 50.8841 41.8228 51.8375 40.6004C52.167 40.185 52.7674 40.1138 53.1793 40.4461C53.5913 40.7784 53.6619 41.3836 53.3323 41.799C52.4024 42.9858 51.4961 44.22 50.6486 45.4661C50.4721 45.7272 50.1778 45.8815 49.8718 45.8815ZM162.987 45.7034C162.681 45.7034 162.387 45.561 162.198 45.2881C161.339 44.042 160.444 42.8077 159.503 41.621C159.173 41.2056 159.244 40.6004 159.656 40.2681C160.068 39.9358 160.668 40.007 160.998 40.4224C161.951 41.6329 162.881 42.9027 163.764 44.1844C164.058 44.6235 163.952 45.2169 163.517 45.5254C163.363 45.656 163.175 45.7034 162.987 45.7034ZM55.5452 38.6185C55.3216 38.6185 55.0862 38.5354 54.9096 38.3693C54.5212 38.0133 54.4858 37.408 54.839 37.0164C55.8748 35.8652 56.9577 34.726 58.0641 33.646C58.4408 33.2781 59.0411 33.29 59.4177 33.6697C59.7826 34.0495 59.7708 34.6548 59.3942 35.0345C58.3113 36.0907 57.2637 37.1944 56.2514 38.31C56.0631 38.5117 55.8041 38.6185 55.5452 38.6185ZM157.29 38.4761C157.031 38.4761 156.772 38.3693 156.584 38.1557C155.571 37.0401 154.512 35.9364 153.429 34.8802C153.052 34.5123 153.041 33.9071 153.406 33.5155C153.771 33.1357 154.371 33.1238 154.759 33.4917C155.866 34.5717 156.96 35.6991 157.996 36.8503C158.349 37.2419 158.326 37.8471 157.925 38.2032C157.749 38.393 157.514 38.4761 157.29 38.4761ZM62.1249 32.1863C61.8542 32.1863 61.5835 32.0676 61.3952 31.8422C61.0538 31.4387 61.1009 30.8334 61.5011 30.4893C62.6781 29.4805 63.9023 28.5074 65.1382 27.5817C65.5619 27.2613 66.1622 27.3562 66.4683 27.7835C66.7861 28.2107 66.6919 28.8159 66.2682 29.1245C65.0676 30.0264 63.867 30.9758 62.7252 31.9608C62.5604 32.1151 62.3486 32.1863 62.1249 32.1863ZM150.687 32.0558C150.475 32.0558 150.251 31.9846 150.075 31.8303C148.933 30.8571 147.732 29.9077 146.52 29.0058C146.096 28.6973 146.002 28.092 146.32 27.6648C146.626 27.2375 147.226 27.1426 147.65 27.463C148.897 28.3887 150.122 29.3618 151.299 30.3587C151.699 30.7029 151.758 31.3081 151.416 31.7116C151.228 31.949 150.969 32.0558 150.687 32.0558ZM69.4933 26.6916C69.1755 26.6916 68.8695 26.5374 68.6929 26.2525C68.4104 25.8016 68.5399 25.2082 68.9754 24.9234C70.2702 24.0808 71.612 23.2738 72.9656 22.5261C73.4247 22.265 74.0014 22.4431 74.2604 22.9059C74.5193 23.3687 74.3428 23.9502 73.8837 24.2113C72.5654 24.9471 71.2589 25.7304 69.9994 26.5374C69.8464 26.6442 69.6699 26.6916 69.4933 26.6916ZM143.306 26.5848C143.13 26.5848 142.953 26.5374 142.8 26.4306C141.529 25.6117 140.223 24.8403 138.904 24.1045C138.445 23.8553 138.269 23.2619 138.528 22.7991C138.775 22.3363 139.363 22.1582 139.822 22.4193C141.176 23.167 142.518 23.974 143.824 24.8047C144.272 25.0895 144.401 25.6829 144.119 26.1339C143.93 26.4306 143.624 26.5848 143.306 26.5848ZM77.5091 22.2413C77.1442 22.2413 76.8028 22.0396 76.6498 21.6835C76.4262 21.197 76.638 20.6273 77.1089 20.4018C78.5096 19.7491 79.9456 19.132 81.3816 18.5624C81.8759 18.3725 82.4291 18.6217 82.6175 19.1083C82.8058 19.6067 82.5586 20.1645 82.076 20.3544C80.6753 20.9003 79.2864 21.4937 77.921 22.1345C77.7798 22.2176 77.6503 22.2413 77.5091 22.2413ZM135.255 22.1464C135.126 22.1464 134.985 22.1226 134.855 22.0514C133.49 21.4106 132.089 20.8172 130.688 20.2713C130.194 20.0814 129.947 19.5236 130.135 19.0252C130.324 18.5268 130.877 18.2776 131.371 18.4674C132.819 19.0252 134.255 19.6423 135.656 20.295C136.138 20.5205 136.338 21.0902 136.115 21.5649C135.962 21.9446 135.62 22.1464 135.255 22.1464ZM86.0427 18.9065C85.6307 18.9065 85.2659 18.6455 85.1364 18.2301C84.9834 17.7198 85.2659 17.1857 85.7602 17.0315C87.2315 16.5686 88.7382 16.1533 90.2448 15.7854C90.7627 15.6667 91.2689 15.9752 91.3983 16.4974C91.516 17.0077 91.21 17.5299 90.6921 17.6604C89.2325 18.0165 87.773 18.42 86.337 18.8709C86.2428 18.8947 86.1369 18.9065 86.0427 18.9065ZM126.698 18.8353C126.604 18.8353 126.51 18.8235 126.416 18.7879C124.98 18.3369 123.508 17.9453 122.049 17.5892C121.531 17.4706 121.213 16.9484 121.343 16.4381C121.472 15.9278 121.978 15.6074 122.484 15.726C123.979 16.0821 125.498 16.4974 126.969 16.9484C127.475 17.1027 127.758 17.6367 127.605 18.147C127.475 18.5742 127.098 18.8353 126.698 18.8353ZM94.953 16.7585C94.494 16.7585 94.0938 16.4262 94.0114 15.9634C93.929 15.4412 94.2703 14.9428 94.7882 14.8597C96.3066 14.5986 97.8486 14.385 99.3905 14.2307C99.9202 14.1714 100.379 14.563 100.438 15.0852C100.485 15.6192 100.109 16.0821 99.5906 16.1414C98.0958 16.2957 96.5891 16.4974 95.106 16.7466C95.059 16.7585 95.0119 16.7585 94.953 16.7585ZM117.776 16.7229C117.729 16.7229 117.67 16.7229 117.623 16.711C116.14 16.4618 114.633 16.2601 113.139 16.1177C112.609 16.0702 112.232 15.5955 112.279 15.0733C112.326 14.5511 112.797 14.1595 113.315 14.207C114.857 14.3613 116.399 14.563 117.917 14.8122C118.435 14.8953 118.788 15.3937 118.706 15.9159C118.635 16.3906 118.235 16.7229 117.776 16.7229ZM104.075 15.8328C103.569 15.8328 103.145 15.4293 103.122 14.9072C103.098 14.3731 103.51 13.934 104.04 13.9103C105.57 13.851 107.159 13.851 108.689 13.8984C109.219 13.9103 109.631 14.3613 109.607 14.8953C109.596 15.4175 109.172 15.821 108.654 15.821C108.642 15.821 108.63 15.821 108.619 15.821C107.136 15.7735 105.582 15.7735 104.099 15.8328C104.099 15.8328 104.087 15.8328 104.075 15.8328Z" fill="#DEDEDE"/>
<path d="M31.3095 85.2579C31.2977 84.8426 31.2977 84.4272 31.2977 84C31.2977 42.2025 65.0321 8.19016 106.488 8.19016C147.944 8.19016 181.678 42.2025 181.678 84C181.678 85.8988 181.608 87.7739 181.466 89.6252C183.785 90.3254 186.234 90.99 188.964 91.5478C189.188 89.0556 189.306 86.5278 189.306 84C189.306 61.7009 180.69 40.731 165.047 24.959C149.403 9.18704 128.605 0.5 106.488 0.5C84.3711 0.5 63.5726 9.18704 47.9295 24.959C32.4512 40.5648 23.8587 61.2737 23.6821 83.3236C26.46 83.8813 28.9554 84.5459 31.3095 85.2579Z" fill="#DEDEDE"/>
<path d="M163.869 132.93C150.062 149.366 129.464 159.81 106.488 159.81C87.7138 159.81 70.5288 152.844 57.3458 141.332C51.8372 140.584 47.4703 139.433 43.4565 138.163C44.8808 139.837 46.3639 141.463 47.9293 143.041C63.5724 158.813 84.371 167.5 106.488 167.5C128.605 167.5 149.403 158.813 165.046 143.041C167.495 140.573 169.755 137.985 171.85 135.291C169.343 134.449 166.753 133.642 163.869 132.93Z" fill="#DEDEDE"/>
<path d="M209.186 146.103C191.436 146.103 182.432 142.993 173.722 139.991C165.223 137.06 157.208 134.295 140.729 134.295C124.25 134.295 116.222 137.06 107.736 139.991C99.0257 142.993 90.0212 146.103 72.2712 146.103C54.5212 146.103 45.5168 142.993 36.8066 139.991C28.3082 137.06 20.2925 134.295 3.81368 134.295C1.70676 134.295 0 132.574 0 130.45V81.5671C0 79.4428 1.70676 77.722 3.81368 77.722C21.5637 77.722 30.5681 80.8313 39.2783 83.8338C47.7767 86.7651 55.7925 89.5302 72.2712 89.5302C88.75 89.5302 96.7775 86.7651 105.264 83.8338C113.974 80.8313 122.979 77.722 140.729 77.722C158.479 77.722 167.483 80.8313 176.193 83.8338C184.692 86.7651 192.708 89.5302 209.186 89.5302C211.293 89.5302 213 91.251 213 93.3753V142.258C213 144.37 211.293 146.103 209.186 146.103ZM7.60381 126.652C22.8702 127.067 31.192 129.927 39.2548 132.716C47.7532 135.647 55.7689 138.413 72.2477 138.413C88.7265 138.413 96.754 135.647 105.241 132.716C113.951 129.714 122.955 126.604 140.705 126.604C158.455 126.604 167.46 129.714 176.17 132.716C183.986 135.41 191.389 137.974 205.361 138.365V97.1729C190.083 96.7576 181.773 93.8975 173.71 91.1086C165.212 88.1773 157.196 85.4122 140.717 85.4122C124.238 85.4122 116.211 88.1773 107.724 91.1086C99.0139 94.1111 90.0095 97.2204 72.2595 97.2204C54.5095 97.2204 45.505 94.1111 36.7948 91.1086C28.9791 88.4147 21.5754 85.8513 7.61555 85.4597V126.652H7.60381Z" fill="#DEDEDE"/>
<path d="M70.847 67.7059L75.5788 65.1069L78.0741 69.7234L62.8901 78.0781L60.3947 73.4616L65.0912 70.8745L59.0764 59.7546L56.0514 64.7153L53.356 59.7309L58.0171 52.1357L61.3952 50.2725L70.847 67.7059Z" fill="#DEDEDE"/>
<path d="M80.605 65.9139C78.4628 64.1813 76.8855 61.2856 75.8497 57.2269C74.8374 53.2394 74.8492 49.9759 75.9086 47.4243C76.9561 44.8847 78.9807 43.2232 81.9586 42.4518C84.9483 41.6804 87.5026 42.1551 89.633 43.8759C91.7635 45.5967 93.3408 48.4449 94.3648 52.4443C95.4006 56.503 95.3888 59.8022 94.3413 62.3656C93.2937 64.9171 91.2809 66.5785 88.2912 67.3499C85.3015 68.1213 82.7355 67.6347 80.605 65.9139ZM88.9385 60.1226C89.1033 58.8053 88.8444 56.7759 88.1499 54.0345C87.4672 51.3643 86.7492 49.5011 85.9724 48.4449C85.1955 47.3768 84.2657 46.9971 83.1828 47.2701C82.0999 47.5549 81.4643 48.35 81.2995 49.6554C81.1229 50.9608 81.3819 52.9546 82.0528 55.6129C82.7473 58.3543 83.4888 60.2531 84.2656 61.3331C85.0425 62.4011 85.9724 62.8046 87.067 62.5198C88.1499 62.2469 88.7738 61.4518 88.9385 60.1226Z" fill="#DEDEDE"/>
<path d="M101.297 61.4636C99.6494 59.2562 98.8137 56.0639 98.8019 51.8746C98.7901 47.7566 99.6023 44.5998 101.238 42.3925C102.875 40.1851 105.24 39.0814 108.313 39.0696C111.396 39.0577 113.762 40.1495 115.41 42.345C117.058 44.5405 117.894 47.6973 117.906 51.8153C117.917 56.0045 117.105 59.2088 115.469 61.428C113.833 63.6472 111.467 64.7628 108.395 64.7628C105.311 64.7746 102.945 63.671 101.297 61.4636ZM110.784 57.9271C111.267 56.6928 111.514 54.6635 111.502 51.839C111.491 49.0858 111.243 47.1039 110.749 45.8815C110.255 44.6592 109.442 44.0539 108.324 44.0539C107.206 44.0539 106.406 44.671 105.911 45.8934C105.429 47.1157 105.182 49.1095 105.193 51.8628C105.205 54.6872 105.452 56.7166 105.947 57.9508C106.441 59.185 107.241 59.8021 108.371 59.8021C109.501 59.7784 110.302 59.1613 110.784 57.9271Z" fill="#DEDEDE"/>
<path d="M124.662 52.5272C123.944 50.8895 123.968 48.8839 124.733 46.5104C125.486 44.1844 126.639 42.5822 128.17 41.704C129.712 40.8258 131.465 40.7072 133.443 41.3599C135.42 42.0126 136.762 43.1519 137.48 44.7896C138.198 46.4273 138.186 48.4092 137.421 50.7352C136.656 53.1087 135.491 54.7346 133.961 55.6128C132.419 56.491 130.665 56.6097 128.688 55.957C126.734 55.3161 125.38 54.165 124.662 52.5272ZM130.112 67.1718L125.05 65.4985L146.591 46.1662L151.617 47.8277L130.112 67.1718ZM131.301 51.8271C131.689 51.3761 132.113 50.4741 132.548 49.1331C132.96 47.8633 133.137 46.902 133.066 46.2731C132.996 45.6441 132.725 45.2524 132.23 45.0863C131.748 44.9202 131.289 45.0744 130.877 45.5491C130.465 46.0238 130.053 46.8902 129.641 48.1718C129.217 49.4891 129.029 50.4623 129.088 51.0675C129.147 51.6846 129.417 52.0644 129.912 52.2305C130.441 52.4204 130.912 52.278 131.301 51.8271ZM139.269 68.3585C138.575 66.7327 138.61 64.7271 139.375 62.3536C140.129 60.0275 141.27 58.4254 142.789 57.5353C144.307 56.6453 146.049 56.5385 148.027 57.1793C150.028 57.8439 151.369 58.9832 152.076 60.5972C152.782 62.2111 152.747 64.2049 151.981 66.5428C151.205 68.9163 150.063 70.5422 148.556 71.4322C147.038 72.3223 145.284 72.4291 143.283 71.7764C141.294 71.1237 139.964 69.9844 139.269 68.3585ZM145.861 67.6227C146.273 67.1599 146.685 66.2698 147.12 64.9525C147.532 63.6827 147.709 62.7214 147.638 62.0925C147.568 61.4635 147.297 61.0719 146.802 60.9057C146.32 60.7396 145.861 60.9057 145.449 61.3686C145.037 61.8433 144.625 62.7096 144.213 63.9913C143.789 65.3086 143.601 66.2817 143.66 66.887C143.719 67.5041 143.989 67.8838 144.484 68.05C144.99 68.228 145.449 68.0737 145.861 67.6227Z" fill="#DEDEDE"/>
<path d="M34.6175 109.254L32.8636 117.016C31.9573 117.205 30.9804 117.289 29.921 117.253C28.8617 117.229 27.8023 117.087 26.7312 116.838C25.0598 116.458 23.6826 115.805 22.5997 114.879C21.5168 113.966 20.7753 112.826 20.3869 111.473C19.9984 110.121 19.9867 108.637 20.3515 106.999C20.7164 105.409 21.352 104.08 22.2937 103.036C23.2235 101.991 24.3653 101.291 25.7189 100.911C27.0725 100.543 28.5556 100.543 30.1682 100.911C31.2746 101.161 32.2869 101.552 33.205 102.062C34.1231 102.573 34.8411 103.166 35.3355 103.807L33.4051 106.406C32.8048 105.777 32.2045 105.29 31.5924 104.923C30.9803 104.566 30.3094 104.294 29.5561 104.127C28.1907 103.819 27.0843 103.973 26.2368 104.59C25.3893 105.207 24.789 106.323 24.4359 107.913C24.0593 109.563 24.1299 110.868 24.6478 111.829C25.1657 112.791 26.1544 113.432 27.6022 113.764C28.2731 113.918 28.9676 114.001 29.6738 114.013L30.3212 111.141L27.6493 110.524L28.2731 107.759L34.6175 109.254Z" fill="#DEDEDE"/>
<path d="M36.854 119.769L41.7741 104.685L45.729 106.002L41.8565 117.858L48.1773 119.959L47.1297 123.175L36.854 119.769Z" fill="#DEDEDE"/>
<path d="M54.3565 123.234C53.3089 121.94 52.9204 120.172 53.1676 117.929L54.1799 108.803L58.2054 109.254L57.1696 118.534C57.0401 119.674 57.1931 120.576 57.6404 121.24C58.0759 121.905 58.7704 122.285 59.7003 122.391C60.6184 122.498 61.3717 122.273 61.9367 121.715C62.5017 121.157 62.8548 120.315 62.9725 119.199L64.0083 109.919L68.0692 110.381L67.0569 119.508C66.8097 121.727 66.0211 123.353 64.7028 124.385C63.3727 125.43 61.5953 125.821 59.3472 125.56C57.0637 125.299 55.404 124.528 54.3565 123.234Z" fill="#DEDEDE"/>
<path d="M76.3558 125.987L75.7791 113.515L71.0944 113.74L70.9414 110.358L84.5011 109.717L84.6541 113.099L79.9694 113.325L80.5462 125.797L76.3558 125.987Z" fill="#DEDEDE"/>
<path d="M91.0454 124.658L87.1611 109.266L98.0489 106.477L98.8375 109.586L91.8694 111.378L92.5991 114.274L99.12 112.601L99.9086 115.71L93.3877 117.383L94.1882 120.54L101.156 118.76L101.945 121.869L91.0454 124.658Z" fill="#DEDEDE"/>
<path d="M111.773 101.766L115.528 100.638L120.036 115.853L117.094 116.743L107.689 110.18L110.255 118.808L106.547 119.923L102.039 104.709L104.946 103.831L114.339 110.358L111.773 101.766Z" fill="#DEDEDE"/>
<path d="M132.654 114.357L132.313 98.4784L143.307 98.241L143.377 101.516L136.48 101.671L136.539 104.566L143.001 104.424L143.071 107.676L136.609 107.818L136.751 114.262L132.654 114.357Z" fill="#DEDEDE"/>
<path d="M160.88 115.722L156.502 115.224L155.066 109.741C154.901 109.124 154.383 108.768 153.512 108.661L152.017 108.495L151.323 114.63L147.262 114.167L149.039 98.3953L156.313 99.226C158.208 99.4397 159.574 100.009 160.433 100.947C161.292 101.873 161.634 103.095 161.469 104.626C161.351 105.694 160.963 106.572 160.315 107.284C159.668 107.996 158.809 108.459 157.749 108.661C158.173 108.803 158.55 109.052 158.867 109.42C159.185 109.788 159.409 110.251 159.55 110.821L160.88 115.722ZM156.89 105.492C157.314 105.267 157.561 104.863 157.632 104.282C157.702 103.676 157.549 103.214 157.196 102.905C156.843 102.596 156.207 102.383 155.313 102.288L152.723 101.991L152.347 105.385L154.936 105.682C155.819 105.777 156.466 105.718 156.89 105.492Z" fill="#DEDEDE"/>
<path d="M164.388 116.683L169.084 101.528L179.807 104.911L178.854 107.973L171.991 105.813L171.109 108.661L177.524 110.678L176.57 113.74L170.155 111.723L169.19 114.832L176.052 116.992L175.099 120.054L164.388 116.683Z" fill="#DEDEDE"/>
<path d="M179.666 121.869L183.644 106.513L194.509 109.385L193.708 112.494L186.752 110.654L185.999 113.55L192.508 115.271L191.707 118.38L185.198 116.659L184.386 119.804L191.342 121.644L190.542 124.753L179.666 121.869Z" fill="#DEDEDE"/>
</svg>
