<svg width="223" height="163" viewBox="0 0 223 163" fill="none" xmlns="http://www.w3.org/2000/svg">
<path d="M9.10221 113.733L15.9456 98.0865C16.3476 97.1629 16.3476 96.112 15.9456 95.1884L9.10221 79.5415H21.3717V72.3231H3.60206C2.38568 72.3231 1.25395 72.9388 0.587583 73.9579C-0.0787804 74.9769 -0.184573 76.2614 0.301978 77.376L8.72138 96.6322L0.301978 115.888C-0.184573 117.003 -0.0787804 118.287 0.587583 119.306C1.25395 120.325 2.38568 120.941 3.60206 120.941H45.1598C43.7848 118.616 42.5155 116.207 41.3838 113.723H9.10221V113.733Z" fill="#DEDEDE"/>
<path d="M214.279 96.6427L222.698 77.3866C223.185 76.272 223.079 74.9875 222.413 73.9684C221.746 72.9493 220.615 72.3337 219.398 72.3337H201.628V79.5521H213.898L207.055 95.199C206.653 96.1225 206.653 97.1735 207.055 98.097L213.898 113.744H181.616C180.485 116.228 179.226 118.627 177.84 120.962H219.398C220.615 120.962 221.746 120.347 222.413 119.328C223.079 118.309 223.185 117.024 222.698 115.909L214.279 96.6427Z" fill="#DEDEDE"/>
<path d="M78.658 60.7949C85.5332 49.8505 97.6863 42.5578 111.5 42.5578C125.314 42.5578 137.467 49.8505 144.342 60.7949H148.52C141.264 47.7805 127.387 38.9486 111.5 38.9486C95.6132 38.9486 81.7359 47.7699 74.48 60.7949H78.658Z" fill="#DEDEDE"/>
<path d="M144.342 102.205C137.467 113.15 125.314 120.442 111.5 120.442C97.6863 120.442 85.5332 113.15 78.658 102.205H74.48C81.7359 115.22 95.6132 124.051 111.5 124.051C127.387 124.051 141.264 115.23 148.52 102.205H144.342Z" fill="#DEDEDE"/>
<path d="M40.9394 60.7949C49.8771 30.1591 78.1288 7.72901 111.5 7.72901C144.871 7.72901 173.122 30.1698 182.06 60.7949H189.549C185.963 47.0905 178.813 34.522 168.564 24.2252C153.322 8.92855 133.056 0.5 111.5 0.5C89.9435 0.5 69.6776 8.92855 54.4359 24.2252C44.1866 34.5114 37.0364 47.0799 33.4507 60.7949H40.9394Z" fill="#DEDEDE"/>
<path d="M182.06 102.205C173.122 132.841 144.871 155.271 111.5 155.271C78.1288 155.271 49.8771 132.83 40.9394 102.205H33.4507C37.0364 115.91 44.1866 128.478 54.4359 138.775C69.6776 154.071 89.9435 162.5 111.5 162.5C133.056 162.5 153.322 154.071 168.564 138.775C178.813 128.489 185.963 115.92 189.549 102.205H182.06Z" fill="#DEDEDE"/>
<path d="M201.628 105.814H21.3716C19.3831 105.814 17.7754 104.201 17.7754 102.205V60.7948C17.7754 58.7992 19.3831 57.1856 21.3716 57.1856H201.628C203.617 57.1856 205.224 58.7992 205.224 60.7948V102.205C205.224 104.201 203.617 105.814 201.628 105.814ZM24.9679 98.6065H198.042V64.4146H24.9679V98.6065Z" fill="#DEDEDE"/>
<path d="M45.7627 92.0675V70.89H50.5224C51.7811 70.89 52.9129 71.2191 53.9177 71.8879C54.7851 72.4505 55.3985 73.3209 55.7687 74.5098C55.9697 75.1361 56.0755 75.8898 56.0755 76.7602C56.0755 78.1827 55.6947 79.3185 54.9437 80.1678C54.6264 80.5287 54.2562 80.8047 53.8331 80.9957C54.5418 81.2611 55.1447 81.8025 55.6312 82.5986C55.9591 83.14 56.2024 83.8407 56.3505 84.6899C56.4245 85.1251 56.4668 85.6134 56.4668 86.1548C56.4668 87.4923 56.213 88.6281 55.7053 89.5623C55.3139 90.2947 54.7533 90.8786 54.0447 91.3138C53.2408 91.8127 52.4369 92.0569 51.633 92.0569H45.7627V92.0675ZM49.1897 79.5414H50.5224C51.5061 79.5414 52.1725 79.0531 52.511 78.0872C52.6379 77.7262 52.6907 77.2804 52.6907 76.7496C52.6907 75.8685 52.4792 75.2104 52.0561 74.7539C51.6648 74.3399 51.1571 74.1277 50.5224 74.1277H49.1897V79.5414ZM49.1897 88.9148H50.5224C51.6013 88.9148 52.3417 88.3627 52.7648 87.2375C52.9129 86.8554 52.9869 86.4202 52.9869 85.9212C52.9869 84.7429 52.7648 83.8831 52.31 83.3417C51.908 82.8428 51.3157 82.5986 50.5224 82.5986H49.1897V88.9148Z" fill="#DEDEDE"/>
<path d="M68.9797 92.3012C67.573 92.3012 66.3883 91.8129 65.4152 90.8362C64.4421 89.8596 63.9556 88.6707 63.9556 87.2695V70.9007H67.0653V87.227C67.0653 87.7366 67.2451 88.1612 67.6047 88.5221C67.9643 88.8724 68.398 89.0529 68.8951 89.0529C69.4028 89.0529 69.8259 88.8724 70.1856 88.5221C70.5346 88.1718 70.7144 87.7366 70.7144 87.227V70.9007H74.0251V87.2695C74.0251 88.692 73.5279 89.8809 72.5442 90.8469C71.5606 91.8235 70.3653 92.3012 68.9797 92.3012Z" fill="#DEDEDE"/>
<path d="M84.6869 74.1171H81.3022V70.9113H91.2342V74.1171H87.8706V92.0675H84.6869V74.1171Z" fill="#DEDEDE"/>
<path d="M103.207 92.3435C101.801 92.3435 100.616 91.8552 99.6323 90.868C98.6486 89.8807 98.1621 88.6918 98.1621 87.3012V75.7518C98.1621 74.34 98.6592 73.1511 99.6429 72.1638C100.627 71.1766 101.822 70.6884 103.207 70.6884C104.614 70.6884 105.799 71.1872 106.772 72.1745C107.745 73.1617 108.232 74.3612 108.232 75.7518V78.1721H104.931V75.6881C104.931 75.1786 104.752 74.7434 104.392 74.3825C104.032 74.0215 103.599 73.8411 103.091 73.8411C102.583 73.8411 102.16 74.0215 101.801 74.3825C101.452 74.7434 101.272 75.1786 101.272 75.6881V87.2694C101.272 87.779 101.452 88.2035 101.801 88.5645C102.15 88.9148 102.583 89.0952 103.091 89.0952C103.599 89.0952 104.032 88.9148 104.392 88.5645C104.752 88.2142 104.931 87.779 104.931 87.2694V84.3502H108.232V87.3012C108.232 88.7131 107.734 89.902 106.751 90.8786C105.767 91.8446 104.582 92.3435 103.207 92.3435Z" fill="#DEDEDE"/>
<path d="M118.766 83.0977V92.0675H115.583V70.9113H118.766V79.8918H122.606V70.9113H125.79V92.0675H122.606V83.0977H118.766Z" fill="#DEDEDE"/>
<path d="M133.363 92.0675V70.89H142.417V74.0958H136.547V79.8705H140.841V83.0764H136.547V88.8511H142.417V92.0569H133.363V92.0675Z" fill="#DEDEDE"/>
<path d="M154.359 70.9113C156.136 70.9113 157.437 71.3996 158.262 72.3762C158.992 73.236 159.351 74.4249 159.351 75.9535V79.032C159.351 80.5287 158.78 81.792 157.648 82.8323L160.007 92.0675H156.569L154.644 84.0955C154.549 84.0955 154.465 84.0955 154.359 84.0955H152.529V92.0675H149.345V70.9113H154.359ZM156.263 76.0066C156.263 74.7752 155.66 74.1702 154.443 74.1702H152.529V80.9427H154.443C154.951 80.9427 155.374 80.7622 155.734 80.4013C156.083 80.0404 156.263 79.6052 156.263 79.1063V76.0066Z" fill="#DEDEDE"/>
<path d="M169.78 83.2037L165.518 70.89H169.019L171.377 78.4905L173.715 70.89H177.237L172.964 83.2037V92.0675H169.78V83.2037Z" fill="#DEDEDE"/>
<path d="M68.4612 40.785L68.1016 40.2966L72.343 36.2098L73.5277 37.8445L72.9565 38.2479L71.9623 37.5791L70.3863 39.0865L72.1738 40.9548L73.094 40.0737L72.7767 39.3837L73.2421 38.7043L74.7652 40.6151L74.3421 41.2308L73.5383 40.647L72.6815 41.475L73.9296 42.7806L75.0614 42.1543L75.4315 42.6532L72.7767 45.2009L72.4277 44.7339L72.8296 43.8634L69.4026 40.286L68.4612 40.785Z" fill="#DEDEDE"/>
<path d="M81.7145 37.6216L78.8798 39.543L78.6259 39.0228L79.2394 38.1948L76.5528 34.2247L75.622 34.6069L75.3047 34.0336C75.622 33.7364 76.0134 33.3967 76.4576 33.0252C76.9124 32.6536 77.2932 32.3564 77.6105 32.1441C78.4144 31.5921 79.1019 31.2949 79.6731 31.2418C80.2442 31.1887 80.7096 31.4223 81.0693 31.9637C81.2173 32.1866 81.3125 32.4519 81.3337 32.7386C81.3654 33.0252 81.3337 33.3224 81.2385 33.609C81.1539 33.8956 81.0269 34.161 80.8471 34.3945L82.1587 34.8616C82.5184 34.989 82.804 35.0845 83.0155 35.1376C83.227 35.2013 83.4492 35.2225 83.6713 35.2332C83.8934 35.2332 84.1155 35.2013 84.3482 35.1164L84.5386 35.0527L84.7396 35.5728C84.5704 35.7958 84.3376 36.0081 84.052 36.1991C83.629 36.4858 83.1847 36.6238 82.7405 36.5919C82.2962 36.5601 81.8202 36.4115 81.3125 36.1355L80.0538 35.4773L79.4933 35.8595L80.4664 37.3031L81.3866 37.0696L81.7145 37.6216ZM77.6 33.0358L79.0385 35.1695L79.8318 34.6387C79.9904 34.3945 80.075 34.1504 80.0856 33.8956C80.1068 33.6408 80.0221 33.3861 79.8529 33.1313C79.7154 32.919 79.5356 32.7598 79.324 32.6536C79.1125 32.5475 78.8904 32.505 78.6471 32.5263C78.4038 32.5475 78.1606 32.643 77.9279 32.8022C77.8433 32.8659 77.7692 32.919 77.7057 32.9615C77.6528 32.9933 77.6106 33.0252 77.6 33.0358Z" fill="#DEDEDE"/>
<path d="M84.4749 28.6836L84.3057 28.0997L89.6895 25.6688L90.3559 27.5796L89.6683 27.7707L88.875 26.8259L86.8548 27.7388L87.8067 29.8725L88.9702 29.3417L88.8962 28.5987L89.552 28.1422L90.3241 30.329L89.6895 30.7536L89.15 29.9893L88.0711 30.4775L88.9914 32.5263L91.1174 31.5709L91.2231 30.1697L91.8684 29.968L92.5242 31.8363L87.0452 34.3097L86.8548 33.7577L87.5317 33.0783L85.5009 28.5456L84.4749 28.6836Z" fill="#DEDEDE"/>
<path d="M97.1465 30.52C96.6705 30.6474 96.2369 30.6898 95.8138 30.6474C95.4013 30.6049 95.0839 30.4882 94.8618 30.3077L94.5234 28.6198L95.2849 28.5243L95.7715 29.4478C95.9196 29.5752 96.1099 29.6602 96.3532 29.7026C96.5859 29.7451 96.8292 29.7345 97.0513 29.6708C97.2205 29.6283 97.3581 29.554 97.4956 29.4478C97.6225 29.3417 97.7176 29.2143 97.7705 29.0657C97.8234 28.9171 97.834 28.7578 97.7811 28.588C97.7388 28.4288 97.6436 28.3014 97.5061 28.2059C97.3686 28.1103 97.1994 28.036 97.0196 27.9935C96.8398 27.9405 96.5859 27.8874 96.2686 27.8343C95.8243 27.7494 95.4542 27.6751 95.1686 27.5796C94.883 27.4946 94.6186 27.346 94.3647 27.1337C94.1214 26.9214 93.9416 26.6348 93.8358 26.2632C93.7195 25.8386 93.7301 25.4353 93.8781 25.0637C94.0262 24.6922 94.2695 24.3844 94.5974 24.1296C94.9253 23.8748 95.2955 23.6837 95.7186 23.5776C96.0147 23.4926 96.3321 23.4608 96.6917 23.4608C97.0408 23.4608 97.3263 23.5139 97.5273 23.62C97.5379 23.6519 97.5908 23.9067 97.6754 24.3843C97.76 24.862 97.8234 25.1805 97.8552 25.3503L97.1148 25.4352L96.7023 24.6073C96.5754 24.4905 96.4061 24.4162 96.184 24.3631C95.9618 24.31 95.7503 24.3206 95.5493 24.3737C95.3272 24.4374 95.158 24.5542 95.0522 24.724C94.9465 24.8939 94.9358 25.0956 94.9993 25.3397C95.0416 25.5096 95.1474 25.6476 95.2955 25.7537C95.4436 25.8599 95.6234 25.9342 95.8244 25.9873C96.0253 26.0403 96.3004 26.0934 96.6388 26.1571C97.1042 26.242 97.485 26.3269 97.7917 26.4119C98.0879 26.5074 98.3734 26.656 98.6273 26.8577C98.8811 27.07 99.061 27.3566 99.1561 27.7176C99.2831 28.1634 99.2514 28.588 99.0716 28.9702C98.8918 29.3523 98.6167 29.6814 98.2571 29.9467C97.9186 30.2334 97.5379 30.4138 97.1465 30.52Z" fill="#DEDEDE"/>
<path d="M101.452 22.9513L101.483 22.325L104.91 21.9747L104.889 22.601L104.011 22.9831L104.212 24.9363L107.121 24.6391L106.931 22.7072L105.915 22.4948L105.926 21.8685L109.374 21.5182L109.353 22.1445L108.475 22.5267L108.983 27.5053L109.987 27.6645V28.2908L106.56 28.6411L106.571 28.0572L107.438 27.622L107.237 25.6051L104.329 25.9023L104.54 27.9617L105.556 28.1209L105.534 28.7473L102.129 29.0976V28.5137L103.006 28.0785L102.509 23.1636L101.452 22.9513Z" fill="#DEDEDE"/>
<path d="M117.307 28.5137L117.518 27.9193L118.481 27.76L119.792 23.0044L118.872 22.5373L119.062 21.9323L121.76 22.4736L121.95 23.6201L122.405 27.155L124.33 24.0022L124.89 23.0999L127.545 23.6307L127.344 24.2358L126.414 24.3101L125.768 29.2462L126.667 29.7132L126.477 30.3396L123.336 29.7132L123.558 29.1188L124.362 28.9277L124.838 25.0531L122.31 29.278L121.188 29.2037L120.554 24.257L119.549 27.983L120.321 28.4288L120.099 29.0551L117.307 28.5137Z" fill="#DEDEDE"/>
<path d="M131.163 25.4989L131.47 24.9788L136.927 27.2398L136.007 29.0338L135.394 28.6729L135.531 27.4415L133.479 26.5923L132.591 28.7578L133.776 29.2461L134.262 28.6835L135.045 28.8427L133.998 30.9127L133.247 30.7429L133.437 29.8193L132.348 29.3629L131.491 31.4329L133.649 32.3246L134.727 31.4329L135.32 31.7619L134.421 33.5241L128.868 31.2206L129.143 30.711L130.105 30.7323L131.999 26.1464L131.163 25.4989Z" fill="#DEDEDE"/>
<path d="M136.737 34.6812L137.107 34.2354L138.048 34.3203L142.977 30.7642L144.257 31.2737L142.861 37.4306L143.316 38.163L142.935 38.6513L140.09 36.8361L140.46 36.3903L141.465 36.5176L141.729 35.3394L139.868 34.1504L138.916 34.9041L139.571 35.764L139.18 36.2523L136.737 34.6812ZM140.587 33.5984L141.973 34.4795L142.575 32.038L140.587 33.5984Z" fill="#DEDEDE"/>
<path d="M149.514 35.2226L154.263 39.6067L152.687 41.061L152.211 40.456L152.888 39.3095L151.915 38.4072L148.414 42.2287L149.017 43.1204L148.53 43.5344L145.971 41.1778L146.404 40.785L147.314 41.1884L150.804 37.3775L149.853 36.4964L148.604 37.3032L148.15 36.7406L149.514 35.2226Z" fill="#DEDEDE"/>
<path d="M65.7748 120.315L63.9238 118.075L64.3152 117.842L64.9921 118.245L67.8692 115.846L67.5095 115.156L67.922 114.88C68.2605 115.188 68.5672 115.464 68.8211 115.718C69.0749 115.973 69.3394 116.249 69.6038 116.578C70.0375 117.098 70.2807 117.576 70.3442 118.022C70.4077 118.457 70.2173 118.871 69.773 119.232C69.5192 119.444 69.2336 119.561 68.9163 119.604C68.599 119.635 68.2816 119.593 67.9643 119.455C67.647 119.317 67.372 119.105 67.1287 118.807C67.0759 118.744 66.9912 118.638 66.896 118.5L67.2451 118.075L67.3403 118.192C67.5836 118.478 67.8374 118.638 68.1018 118.669C68.3663 118.701 68.6201 118.616 68.8634 118.404C69.1173 118.192 69.2653 117.948 69.3076 117.682C69.35 117.406 69.2653 117.13 69.0326 116.854C69.0009 116.812 68.9586 116.769 68.9057 116.716C68.8528 116.663 68.8211 116.631 68.7894 116.6L65.7854 119.105L66.2402 120.039L65.7748 120.315Z" fill="#DEDEDE"/>
<path d="M70.5347 125.336L68.5991 123.521L68.9481 123.234L69.678 123.552L72.2059 120.835L71.7617 120.198L72.1425 119.858C72.428 120.049 72.7454 120.283 73.105 120.559C73.4646 120.835 73.7502 121.079 73.9723 121.281C74.5223 121.801 74.8714 122.268 75.0089 122.682C75.1464 123.107 75.0512 123.499 74.7127 123.86C74.5646 124.02 74.3954 124.126 74.1733 124.2C73.9617 124.274 73.7396 124.296 73.5069 124.285C73.2742 124.264 73.0521 124.211 72.8511 124.126L72.7242 125.198C72.6925 125.495 72.6713 125.718 72.6607 125.898C72.6502 126.068 72.6713 126.238 72.7031 126.408C72.7348 126.578 72.8089 126.737 72.904 126.896L72.9886 127.034L72.629 127.278C72.4281 127.183 72.2377 127.045 72.0367 126.864C71.7405 126.588 71.5713 126.281 71.5184 125.941C71.4656 125.601 71.4972 125.208 71.6136 124.784L71.8886 123.712L71.5079 123.351L70.5876 124.338L70.9261 124.996L70.5347 125.336ZM73.2742 121.429L71.9203 122.884L72.4598 123.393C72.6713 123.468 72.8723 123.489 73.0627 123.457C73.2531 123.425 73.4329 123.319 73.5915 123.149C73.729 123 73.8137 122.841 73.856 122.671C73.8983 122.491 73.8983 122.321 73.8348 122.141C73.782 121.96 73.6656 121.79 73.5069 121.642C73.4434 121.589 73.3906 121.536 73.3483 121.504C73.306 121.461 73.2848 121.44 73.2742 121.429Z" fill="#DEDEDE"/>
<path d="M77.4625 125.071L77.7798 124.731L81.4924 127.406L80.477 128.595L80.0856 128.213L80.4135 127.31L79.0173 126.313L77.9702 127.788L78.774 128.372L79.2394 128.032L79.8 128.298L78.6471 129.667L78.1183 129.402L78.425 128.743L77.6846 128.213L76.6797 129.624L78.15 130.686L79.1231 130.208L79.5145 130.569L78.5202 131.737L74.7441 129.019L75.0403 128.68L75.7595 128.871L77.9913 125.75L77.4625 125.071Z" fill="#DEDEDE"/>
<path d="M80.7837 133.234L81.0693 132.841L81.8203 132.926L83.8088 129.667L83.2165 129.126L83.4809 128.712L85.3742 129.688L85.2685 130.58L84.8454 133.308L86.9502 131.376L87.5531 130.824L89.4147 131.79L89.1397 132.193L88.431 132.045L86.8973 135.58L87.4685 136.121L87.1935 136.546L84.9935 135.399L85.279 135.006L85.9137 135.038L87.0877 132.257L84.3059 134.858L83.4809 134.561L84.0627 130.75L82.5184 133.308L83.0049 133.807L82.7087 134.221L80.7837 133.234Z" fill="#DEDEDE"/>
<path d="M91.3082 133.011L91.5304 132.586L94.0477 133.51L93.8256 133.956L93.0641 133.913L91.7524 137.512L92.3977 137.968L92.1756 138.425L89.6899 137.512L89.8803 137.098H90.6524L91.9534 133.51L91.3082 133.011Z" fill="#DEDEDE"/>
<path d="M96.4699 135.038L95.7612 134.614L95.9622 134.168L98.5536 134.784L98.3844 135.229L97.6439 135.282L97.1046 137.554C96.9882 138.053 97.0199 138.446 97.1997 138.743C97.3795 139.04 97.6757 139.231 98.0776 139.337C98.4584 139.422 98.7757 139.38 99.0401 139.199C99.3046 139.019 99.495 138.69 99.6008 138.212L100.151 135.898L99.4738 135.484L99.643 135.028L101.822 135.548L101.653 136.004L100.923 136.057L100.383 138.265C100.193 139.051 99.8652 139.592 99.4104 139.889C98.9556 140.187 98.3527 140.24 97.6228 140.07C97.2315 139.974 96.8824 139.847 96.5862 139.667C96.2901 139.497 96.0679 139.231 95.9198 138.87C95.7718 138.509 95.7612 138.042 95.8987 137.469L96.4699 135.038Z" fill="#DEDEDE"/>
<path d="M103.197 141.142L103.303 140.664L104.032 140.452L104.593 136.673L103.842 136.408L103.927 135.919L106.053 136.079L106.306 136.949L106.983 139.624L108.168 137.023L108.517 136.28L110.611 136.44L110.516 136.928L109.808 137.066L109.765 140.919L110.506 141.195L110.421 141.694L107.946 141.503L108.062 141.025L108.665 140.802V137.777L107.121 141.259L106.254 141.312L105.302 137.575L104.868 140.537L105.503 140.802L105.386 141.301L103.197 141.142Z" fill="#DEDEDE"/>
<path d="M119.782 141.153C119.242 141.227 118.766 141.185 118.354 141.015C117.941 140.845 117.603 140.569 117.349 140.197C117.095 139.826 116.926 139.38 116.852 138.86C116.778 138.318 116.831 137.83 117 137.374C117.18 136.917 117.465 136.546 117.867 136.248C118.269 135.951 118.756 135.76 119.338 135.675C119.866 135.601 120.342 135.643 120.766 135.803C121.178 135.962 121.517 136.227 121.781 136.609C122.045 136.981 122.215 137.459 122.289 138.011C122.352 138.425 122.32 138.828 122.225 139.21C122.119 139.592 121.95 139.921 121.696 140.219C121.453 140.505 121.146 140.728 120.787 140.877C120.956 141.132 121.189 141.312 121.506 141.429C121.813 141.545 122.225 141.62 122.743 141.641C122.743 141.662 122.743 141.747 122.743 141.864C122.743 141.991 122.743 142.066 122.733 142.087C122.458 142.246 122.151 142.342 121.802 142.395C121.506 142.437 121.231 142.416 120.977 142.342C120.713 142.267 120.501 142.119 120.321 141.917C120.141 141.705 120.046 141.439 120.004 141.121C119.941 141.121 119.866 141.132 119.782 141.153ZM119.179 136.376C118.724 136.44 118.417 136.641 118.238 136.992C118.058 137.342 118.015 137.809 118.1 138.393C118.153 138.754 118.259 139.093 118.417 139.422C118.587 139.752 118.809 140.017 119.105 140.229C119.401 140.441 119.761 140.526 120.184 140.505C120.459 140.367 120.649 140.197 120.787 139.985C120.914 139.783 120.998 139.55 121.019 139.295C121.041 139.04 121.03 138.754 120.988 138.425C120.935 138.074 120.84 137.735 120.681 137.395C120.522 137.066 120.321 136.79 120.067 136.588C119.814 136.397 119.517 136.323 119.179 136.376Z" fill="#DEDEDE"/>
<path d="M124.7 135.527L123.875 135.505L123.833 135.017L126.382 134.274L126.456 134.752L125.843 135.166L126.488 137.406C126.625 137.894 126.848 138.234 127.154 138.403C127.45 138.573 127.81 138.594 128.212 138.478C128.582 138.372 128.847 138.17 128.984 137.883C129.122 137.597 129.132 137.214 128.995 136.747L128.339 134.455L127.546 134.433L127.472 133.956L129.629 133.329L129.703 133.807L129.09 134.221L129.703 136.408C129.915 137.193 129.904 137.819 129.65 138.308C129.397 138.785 128.91 139.136 128.18 139.348C127.789 139.465 127.419 139.518 127.08 139.507C126.742 139.497 126.414 139.38 126.107 139.146C125.8 138.913 125.568 138.499 125.409 137.936L124.7 135.527Z" fill="#DEDEDE"/>
<path d="M133.5 137.49L133.374 137.055L133.828 136.482L133.617 131.769L134.484 131.153L137.869 134.667L138.535 134.688L138.694 135.144L136.314 136.227L136.187 135.792L136.695 135.197L136.05 134.529L134.495 135.229L134.579 136.164L135.415 136.1L135.563 136.567L133.5 137.49ZM134.431 134.529L135.584 134.009L134.262 132.586L134.431 134.529Z" fill="#DEDEDE"/>
<path d="M141.032 133.849L140.841 133.435L141.286 132.852L139.318 129.656L138.504 129.784L138.313 129.348L140.63 127.905L140.82 128.34L140.323 129.009L142.343 132.289L143.644 131.535L143.613 130.261L144.099 130.049L144.787 131.514L141.032 133.849Z" fill="#DEDEDE"/>
<path d="M144.046 126.174L143.803 125.761L145.929 124.115L146.193 124.54L145.749 125.166L148.086 128.202L148.816 127.894L149.081 128.329L146.986 129.954L146.733 129.571L147.145 128.913L144.818 125.898L144.046 126.174Z" fill="#DEDEDE"/>
<path d="M147.452 122.873L151.07 119.402L152.117 120.697L151.63 121.037L150.784 120.463L150.044 121.175L152.815 124.083L153.534 123.659L153.83 124.062L151.884 125.93L151.598 125.569L151.958 124.89L149.197 121.992L148.478 122.682L149.039 123.69L148.584 124.02L147.452 122.873Z" fill="#DEDEDE"/>
<path d="M152.719 118.34L152.402 117.958L153.946 116.037L154.274 116.408L154.126 116.918L155.966 117.258L155.247 115.549L154.708 115.867L154.369 115.506L155.586 113.999L155.913 114.37L155.776 114.89L156.738 117.481L157.87 118.404L158.505 118.011L158.833 118.34L157.225 120.325L156.918 119.996L157.119 119.328L156.051 118.457L153.248 118.022L152.719 118.34Z" fill="#DEDEDE"/>
</svg>
