<svg width="214" height="171" viewBox="0 0 214 171" fill="none" xmlns="http://www.w3.org/2000/svg">
<path d="M27.9999 63.97C31.6699 50.35 38.8499 37.86 49.0999 27.62C64.5199 12.2 85.02 3.71002 106.83 3.71002C128.64 3.71002 149.14 12.2 164.56 27.62C174.8 37.86 181.99 50.35 185.66 63.97H188.97C185.23 49.49 177.68 36.21 166.83 25.35C150.8 9.32001 129.5 0.5 106.83 0.5C84.16 0.5 62.86 9.33001 46.83 25.35C35.97 36.21 28.4299 49.49 24.6899 63.97H27.9999Z" fill="#DEDEDE"/>
<path d="M185.66 106.73C181.99 120.35 174.81 132.84 164.56 143.08C149.14 158.5 128.64 166.99 106.83 166.99C85.02 166.99 64.5199 158.5 49.0999 143.08C38.8599 132.84 31.6699 120.35 27.9999 106.73H24.6899C28.4299 121.21 35.98 134.49 46.83 145.35C62.86 161.38 84.16 170.2 106.83 170.2C129.5 170.2 150.8 161.37 166.83 145.35C177.69 134.49 185.23 121.21 188.97 106.73H185.66Z" fill="#DEDEDE"/>
<path d="M175.65 106.73C172.24 117.77 166.17 127.88 157.77 136.28C144.17 149.88 126.08 157.38 106.84 157.38C87.5996 157.38 69.5096 149.89 55.9096 136.28C47.5096 127.88 41.4396 117.76 38.0296 106.73H31.3496C34.9396 119.49 41.7596 131.18 51.3896 140.81C66.1996 155.62 85.8996 163.78 106.85 163.78C127.8 163.78 147.5 155.62 162.31 140.81C171.94 131.18 178.75 119.49 182.35 106.73H175.65Z" fill="#DEDEDE"/>
<path d="M38.0198 63.97C41.4298 52.93 47.4998 42.82 55.8998 34.42C69.4998 20.82 87.5898 13.32 106.83 13.32C126.07 13.32 144.16 20.81 157.76 34.42C166.16 42.82 172.23 52.94 175.64 63.97H182.32C178.73 51.21 171.91 39.52 162.28 29.89C147.47 15.08 127.77 6.92004 106.82 6.92004C85.8698 6.92004 66.1698 15.08 51.3598 29.89C41.7298 39.52 34.9198 51.21 31.3198 63.97H38.0198Z" fill="#DEDEDE"/>
<path d="M190.69 108.33H22.98C10.31 108.33 0 98.02 0 85.35C0 72.68 10.31 62.3701 22.98 62.3701H190.69C203.36 62.3701 213.67 72.68 213.67 85.35C213.67 98.03 203.36 108.33 190.69 108.33ZM22.98 65.58C12.07 65.58 3.19998 74.45 3.19998 85.36C3.19998 96.27 12.07 105.14 22.98 105.14H190.69C201.6 105.14 210.47 96.27 210.47 85.36C210.47 74.45 201.6 65.58 190.69 65.58H22.98Z" fill="#DEDEDE"/>
<path d="M106.83 23.13L110.48 34.35H122.27L112.73 41.28L116.37 52.5L106.83 45.57L97.2901 52.5L100.93 41.28L91.3901 34.35H103.19L106.83 23.13Z" fill="#DEDEDE"/>
<path d="M58.3199 124.38L59.0999 123.03L57.2999 120.63L55.7798 121L55.1099 120.1L61.6899 118.63L62.2299 119.35L58.9899 125.27L58.3199 124.38ZM58.2198 120.41L59.5799 122.22L60.9999 119.74L58.2198 120.41Z" fill="#DEDEDE"/>
<path d="M61.7397 127.43C61.7397 126.82 62.0398 126.21 62.6398 125.62L65.2397 123.04L66.0098 123.82L63.3698 126.44C62.9898 126.81 62.7997 127.18 62.7797 127.55C62.7597 127.92 62.9197 128.28 63.2697 128.62C63.6097 128.96 63.9598 129.12 64.3298 129.1C64.6998 129.08 65.0698 128.89 65.4498 128.52L68.0897 125.9L68.8597 126.68L66.2697 129.26C65.6797 129.85 65.0697 130.14 64.4597 130.14C63.8397 130.14 63.2397 129.84 62.6497 129.25C62.0297 128.65 61.7397 128.05 61.7397 127.43Z" fill="#DEDEDE"/>
<path d="M68.27 134.19L71.47 130.06L69.8901 128.83L70.4501 128.11L74.5001 131.26L73.9401 131.98L72.35 130.75L69.15 134.88L68.27 134.19Z" fill="#DEDEDE"/>
<path d="M79.9797 134.62L80.9297 135.18L77.8397 140.48L76.8898 139.92L78.2297 137.62L75.5098 136.03L74.1697 138.33L73.2197 137.78L76.3098 132.48L77.2598 133.03L75.9597 135.25L78.6797 136.84L79.9797 134.62Z" fill="#DEDEDE"/>
<path d="M81.0298 142.02L83.3998 136.36L87.1898 137.95L86.8498 138.76L84.0698 137.59L83.4098 139.16L86.0298 140.26L85.6898 141.07L83.0698 139.97L82.3698 141.63L85.1498 142.8L84.8098 143.61L81.0298 142.02Z" fill="#DEDEDE"/>
<path d="M93.4801 139.86L94.4901 140.14L92.8701 146.06L92.0701 145.84L90.0101 140.82L88.8701 144.97L87.8701 144.7L89.4901 138.78L90.2901 139L92.3401 144.01L93.4801 139.86Z" fill="#DEDEDE"/>
<path d="M97.7797 146.92L98.4897 141.74L96.5098 141.47L96.6298 140.56L101.71 141.25L101.59 142.16L99.5997 141.89L98.8898 147.07L97.7797 146.92Z" fill="#DEDEDE"/>
<path d="M103.73 147.5L103.98 141.36L105.09 141.4L104.84 147.54L103.73 147.5Z" fill="#DEDEDE"/>
<path d="M109.43 147.22C108.96 146.99 108.6 146.64 108.33 146.18C108.06 145.72 107.91 145.17 107.87 144.54C107.83 143.91 107.92 143.35 108.13 142.86C108.34 142.37 108.67 141.99 109.1 141.71C109.54 141.43 110.05 141.27 110.66 141.23C111.07 141.21 111.47 141.25 111.84 141.36C112.21 141.47 112.53 141.63 112.78 141.84L112.47 142.67C112.18 142.46 111.9 142.32 111.62 142.23C111.34 142.15 111.05 142.11 110.74 142.13C110.15 142.16 109.7 142.38 109.4 142.79C109.1 143.19 108.97 143.75 109.01 144.47C109.05 145.19 109.25 145.74 109.59 146.11C109.93 146.48 110.4 146.65 111 146.61C111.31 146.59 111.6 146.52 111.86 146.41C112.12 146.3 112.39 146.12 112.65 145.87L113.06 146.66C112.83 146.9 112.54 147.1 112.18 147.25C111.82 147.4 111.44 147.49 111.02 147.51C110.43 147.55 109.9 147.45 109.43 147.22Z" fill="#DEDEDE"/>
<path d="M125.5 144.79L124.37 145.09L123.09 143.32C122.97 143.15 122.84 143.05 122.68 143.02C122.52 142.98 122.33 143 122.11 143.06L121.03 143.35L121.69 145.82L120.62 146.1L119.04 140.17L121.58 139.49C122.25 139.31 122.8 139.32 123.23 139.52C123.66 139.72 123.95 140.1 124.09 140.65C124.2 141.04 124.18 141.41 124.05 141.74C123.91 142.07 123.67 142.35 123.32 142.56C123.69 142.54 124.01 142.72 124.27 143.09L125.5 144.79ZM122.13 142.15C122.54 142.04 122.82 141.89 122.97 141.68C123.12 141.48 123.16 141.22 123.08 140.92C123 140.62 122.84 140.42 122.61 140.33C122.38 140.23 122.06 140.24 121.65 140.35L120.31 140.71L120.79 142.51L122.13 142.15Z" fill="#DEDEDE"/>
<path d="M128.52 143.72L126.2 138.03L130 136.48L130.33 137.29L127.53 138.43L128.17 140L130.8 138.93L131.13 139.75L128.5 140.82L129.18 142.49L131.98 141.35L132.31 142.16L128.52 143.72Z" fill="#DEDEDE"/>
<path d="M136.1 139.93C135.58 139.92 135.1 139.77 134.66 139.48C134.22 139.18 133.84 138.76 133.53 138.2C133.22 137.65 133.06 137.11 133.03 136.57C133.01 136.04 133.13 135.55 133.4 135.11C133.67 134.67 134.07 134.3 134.59 134C134.95 133.8 135.32 133.66 135.7 133.6C136.08 133.53 136.43 133.54 136.76 133.63L136.84 134.51C136.49 134.45 136.17 134.44 135.88 134.49C135.59 134.54 135.31 134.63 135.04 134.79C134.52 135.08 134.22 135.47 134.12 135.97C134.02 136.46 134.15 137.03 134.5 137.65C134.85 138.28 135.27 138.69 135.74 138.87C136.21 139.05 136.71 139 137.23 138.7C137.5 138.55 137.73 138.36 137.92 138.14C138.11 137.92 138.27 137.64 138.4 137.31L139.11 137.84C139.01 138.16 138.84 138.46 138.58 138.76C138.32 139.05 138.02 139.3 137.66 139.5C137.15 139.79 136.63 139.94 136.1 139.93Z" fill="#DEDEDE"/>
<path d="M142.06 136.65L138.53 131.62L139.44 130.98L142.97 136.01L142.06 136.65Z" fill="#DEDEDE"/>
<path d="M141.72 129.32L143.74 127.58C144.24 127.15 144.74 126.93 145.22 126.94C145.71 126.94 146.13 127.15 146.49 127.57C146.85 127.99 146.99 128.44 146.92 128.93C146.85 129.42 146.56 129.87 146.07 130.3L144.89 131.31L146.56 133.25L145.72 133.98L141.72 129.32ZM145.41 129.73C145.7 129.48 145.87 129.23 145.92 128.98C145.97 128.73 145.89 128.49 145.7 128.27C145.5 128.04 145.28 127.93 145.02 127.93C144.77 127.94 144.49 128.07 144.2 128.32L143.12 129.25L144.33 130.66L145.41 129.73Z" fill="#DEDEDE"/>
<path d="M151.57 128.64L147.03 124.51L149.79 121.47L150.44 122.06L148.41 124.29L149.67 125.43L151.58 123.33L152.23 123.92L150.32 126.02L151.65 127.23L153.68 125L154.33 125.59L151.57 128.64Z" fill="#DEDEDE"/>
<path d="M156.63 122.5C156.29 122.76 155.94 122.94 155.58 123.04L155.14 122.26C155.5 122.15 155.81 121.99 156.09 121.79C156.37 121.59 156.61 121.33 156.84 121.02C157.09 120.67 157.22 120.36 157.23 120.09C157.24 119.81 157.14 119.6 156.92 119.44C156.73 119.31 156.53 119.29 156.3 119.39C156.07 119.49 155.77 119.72 155.4 120.05C154.82 120.58 154.32 120.91 153.9 121.04C153.48 121.17 153.07 121.09 152.65 120.8C152.36 120.59 152.15 120.32 152.03 120C151.91 119.68 151.9 119.32 151.97 118.94C152.05 118.55 152.22 118.17 152.5 117.79C152.75 117.44 153.04 117.14 153.37 116.9C153.7 116.66 154.03 116.51 154.36 116.44L154.8 117.21C154.13 117.4 153.6 117.77 153.21 118.3C152.98 118.62 152.86 118.93 152.86 119.21C152.86 119.49 152.97 119.72 153.2 119.88C153.4 120.02 153.61 120.04 153.83 119.95C154.05 119.86 154.35 119.64 154.73 119.3C155.13 118.95 155.47 118.69 155.78 118.51C156.08 118.33 156.37 118.23 156.65 118.22C156.93 118.21 157.21 118.3 157.48 118.49C157.78 118.7 157.98 118.97 158.09 119.29C158.2 119.61 158.21 119.96 158.12 120.35C158.03 120.74 157.84 121.13 157.55 121.54C157.28 121.92 156.97 122.24 156.63 122.5Z" fill="#DEDEDE"/>
<path d="M26.44 92.94H18.98L19.16 91.6801L21.27 90.9301V80.5L19.12 80.05L19.25 78.64C20.19 78.49 21.3 78.3601 22.57 78.2401C23.84 78.1201 24.9 78.0601 25.73 78.0601C27.85 78.0601 29.45 78.3601 30.55 78.9601C31.64 79.5601 32.19 80.5601 32.19 81.9601C32.19 82.5501 32.04 83.1301 31.73 83.6801C31.43 84.2301 31.02 84.72 30.51 85.13C30 85.55 29.45 85.8601 28.85 86.0601L30.64 88.5C31.13 89.16 31.53 89.68 31.85 90.05C32.17 90.42 32.52 90.7401 32.91 91.0201C33.3 91.3 33.75 91.5 34.27 91.64L34.7 91.76L34.43 92.95C33.84 93.14 33.18 93.23 32.43 93.23C31.31 93.23 30.36 92.93 29.59 92.33C28.82 91.73 28.15 90.8701 27.56 89.7701L26.09 87.04H24.62V90.8401L26.58 91.54L26.44 92.94ZM24.61 79.66V85.25H26.69C27.26 85.01 27.72 84.66 28.06 84.22C28.4 83.78 28.58 83.23 28.58 82.57C28.58 82.02 28.46 81.52 28.21 81.07C27.97 80.62 27.61 80.27 27.15 80.01C26.69 79.75 26.14 79.6201 25.52 79.6201C25.29 79.6201 25.09 79.63 24.92 79.64C24.74 79.65 24.64 79.66 24.61 79.66Z" fill="#DEDEDE"/>
<path d="M37.6401 79.48L37.8201 78.17H50.6801L50.3101 82.55L48.7801 82.32L48.0401 79.73H43.2101V84.8101H46.0001L46.5201 83.2801L48.2301 82.9601L47.8301 87.9901L46.1801 88.26L45.7901 86.26H43.2201V91.14H48.3101L49.7601 88.4601L51.2301 88.64L50.8701 92.9301H37.7701L37.8901 91.67L39.8501 90.92V80.14L37.6401 79.48Z" fill="#DEDEDE"/>
<path d="M58.8602 93.22C57.7902 93.22 56.8402 93.05 55.9902 92.72C55.1502 92.39 54.5402 91.97 54.1802 91.46L54.4502 87.73L56.1102 87.98L56.5802 90.2C56.8202 90.55 57.1701 90.83 57.6501 91.06C58.1201 91.29 58.6202 91.4 59.1402 91.4C59.5102 91.4 59.8602 91.33 60.2002 91.18C60.5302 91.03 60.8002 90.82 61.0002 90.55C61.2002 90.27 61.3002 89.94 61.3002 89.57C61.3002 89.21 61.1802 88.88 60.9402 88.6C60.7002 88.32 60.4002 88.07 60.0402 87.86C59.6802 87.65 59.1802 87.4 58.5502 87.09C57.6602 86.66 56.9302 86.28 56.3802 85.93C55.8302 85.58 55.3601 85.12 54.9601 84.54C54.5601 83.96 54.3602 83.25 54.3602 82.42C54.3602 81.46 54.6201 80.63 55.1501 79.95C55.6801 79.27 56.3602 78.75 57.2002 78.41C58.0402 78.07 58.9302 77.89 59.8802 77.89C60.5402 77.89 61.2502 78 61.9902 78.21C62.7302 78.42 63.2902 78.7 63.6602 79.03C63.6602 79.11 63.6202 79.67 63.5302 80.71C63.4402 81.75 63.3802 82.47 63.3502 82.85L61.7402 82.59L61.3602 80.62C61.1702 80.31 60.8602 80.04 60.4202 79.81C59.9802 79.58 59.5401 79.46 59.0901 79.46C58.5801 79.46 58.1602 79.61 57.8502 79.9C57.5402 80.2 57.3802 80.62 57.3802 81.16C57.3802 81.55 57.5101 81.89 57.7701 82.2C58.0301 82.5 58.3602 82.77 58.7402 82.99C59.1302 83.22 59.6702 83.49 60.3702 83.81C61.3002 84.25 62.0602 84.66 62.6402 85.02C63.2202 85.38 63.7102 85.86 64.1302 86.44C64.5502 87.03 64.7502 87.73 64.7502 88.55C64.7502 89.56 64.4501 90.42 63.8401 91.12C63.2301 91.82 62.4702 92.34 61.5602 92.69C60.6402 93.05 59.7502 93.22 58.8602 93.22Z" fill="#DEDEDE"/>
<path d="M67.6401 78.1801H81.7201L81.3301 82.8401L79.6801 82.57L79.0701 79.75H76.1801V91.0301L78.4701 91.5601L78.2901 92.94H70.7201L70.8401 91.67L72.8901 90.98V79.7401H70.0801L69.2501 82.8701L67.7001 82.64L67.6401 78.1801Z" fill="#DEDEDE"/>
<path d="M84.6201 92.94L84.7901 91.68L86.6201 90.74L91.5301 78.45L94.4701 77.88L99.1001 90.79L100.8 91.61L100.67 92.95H93.3001L93.4701 91.69L95.4801 90.75L94.6001 88.28H89.8001L88.9201 90.77L91.1401 91.58L90.9901 92.93H84.6201V92.94ZM90.4301 86.43H94.0001L92.2701 81.26L90.4301 86.43Z" fill="#DEDEDE"/>
<path d="M105.94 80.2101L103.72 79.5201L103.97 78.1801H111.46L111.28 79.5201L109.29 80.1501V86.7C109.29 88.14 109.63 89.2101 110.31 89.9001C110.99 90.5901 111.92 90.94 113.11 90.94C114.2 90.94 115.05 90.61 115.66 89.94C116.27 89.28 116.57 88.26 116.57 86.89L116.58 80.2101L114.46 79.5201L114.63 78.1801H120.94L120.77 79.5201L118.8 80.1501L118.75 86.5301C118.73 88.8101 118.18 90.5 117.12 91.6C116.06 92.7 114.46 93.25 112.33 93.25C111.18 93.25 110.15 93.11 109.23 92.83C108.31 92.55 107.53 91.98 106.89 91.1C106.25 90.22 105.93 88.9501 105.93 87.2801V80.2101H105.94Z" fill="#DEDEDE"/>
<path d="M131.27 92.94H123.81L123.99 91.6801L126.1 90.9301V80.5L123.95 80.05L124.08 78.64C125.02 78.49 126.13 78.3601 127.4 78.2401C128.67 78.1201 129.73 78.0601 130.56 78.0601C132.68 78.0601 134.28 78.3601 135.38 78.9601C136.47 79.5601 137.02 80.5601 137.02 81.9601C137.02 82.5501 136.87 83.1301 136.56 83.6801C136.26 84.2301 135.85 84.72 135.34 85.13C134.83 85.55 134.28 85.8601 133.68 86.0601L135.47 88.5C135.96 89.16 136.36 89.68 136.68 90.05C137 90.42 137.35 90.7401 137.74 91.0201C138.13 91.3 138.58 91.5 139.1 91.64L139.53 91.76L139.26 92.95C138.67 93.14 138.01 93.23 137.26 93.23C136.14 93.23 135.19 92.93 134.42 92.33C133.65 91.73 132.98 90.8701 132.39 89.7701L130.92 87.04H129.45V90.8401L131.41 91.54L131.27 92.94ZM129.44 79.66V85.25H131.52C132.09 85.01 132.55 84.66 132.89 84.22C133.23 83.78 133.41 83.23 133.41 82.57C133.41 82.02 133.29 81.52 133.04 81.07C132.8 80.62 132.44 80.27 131.98 80.01C131.52 79.75 130.97 79.6201 130.35 79.6201C130.12 79.6201 129.92 79.63 129.75 79.64C129.57 79.65 129.47 79.66 129.44 79.66Z" fill="#DEDEDE"/>
<path d="M142.46 92.94L142.63 91.68L144.46 90.74L149.37 78.45L152.31 77.88L156.94 90.79L158.64 91.61L158.51 92.95H151.15L151.32 91.69L153.32 90.75L152.44 88.28H147.64L146.76 90.77L148.98 91.58L148.83 92.93H142.46V92.94ZM148.28 86.43H151.85L150.12 81.26L148.28 86.43Z" fill="#DEDEDE"/>
<path d="M161.69 79.55L161.84 78.17H166.53L173.49 88.16V80.2L171.28 79.51L171.49 78.17H177.73L177.49 79.51L175.51 80.14V92.83L172.92 93.2801L165.94 83.55V91L168.09 91.57L167.95 92.92H161.69L161.81 91.66L163.8 90.91V80.3401L161.69 79.55Z" fill="#DEDEDE"/>
<path d="M180.61 78.1801H194.69L194.3 82.8401L192.65 82.57L192.04 79.75H189.15V91.0301L191.44 91.5601L191.26 92.94H183.69L183.81 91.67L185.86 90.98V79.7401H183.05L182.22 82.8701L180.67 82.64L180.61 78.1801Z" fill="#DEDEDE"/>
</svg>
